{"accessors" : [{"bufferView" : 0, "byteOffset" : 0, "componentType" : 5123, "count" : 2400, "type" : "SCALAR", "max" : [1999], "min" : [0]}, {"bufferView" : 1, "byteOffset" : 0, "componentType" : 5126, "count" : 2000, "type" : "VEC3", "max" : [1388.5938720703125, 728.9423217773438, -168.21205139160156], "min" : [-927.7498168945312, -689.1263427734375, -1303.2933349609375], "name" : "POSITION"}, {"bufferView" : 1, "byteOffset" : 12, "componentType" : 5126, "count" : 2000, "type" : "VEC2", "max" : [1, -0], "min" : [0, -1], "name" : "TEXCOORD_0"}, {"bufferView" : 0, "byteOffset" : 4800, "componentType" : 5123, "count" : 13920, "type" : "SCALAR", "max" : [11599], "min" : [0]}, {"bufferView" : 2, "byteOffset" : 0, "componentType" : 5126, "count" : 11600, "type" : "VEC3", "max" : [132.83245849609375, 333.4347229003906, 127.76017761230469], "min" : [-123.88265228271484, 0.8608490228652954, -128.56201171875], "name" : "POSITION"}, {"bufferView" : 2, "byteOffset" : 12, "componentType" : 5126, "count" : 11600, "type" : "VEC2", "max" : [1, -0], "min" : [0, -1], "name" : "TEXCOORD_0"}, {"bufferView" : 0, "byteOffset" : 32640, "componentType" : 5123, "count" : 81, "type" : "SCALAR", "max" : [62], "min" : [0]}, {"bufferView" : 3, "byteOffset" : 0, "componentType" : 5126, "count" : 63, "type" : "VEC3", "max" : [67.2993392944336, 0.8608490228652954, 62.640541076660156], "min" : [-58.57206344604492, 0.8608490228652954, -63.03525924682617], "name" : "POSITION"}, {"bufferView" : 0, "byteOffset" : 32804, "componentType" : 5123, "count" : 81, "type" : "SCALAR", "max" : [62], "min" : [0]}, {"bufferView" : 4, "byteOffset" : 0, "componentType" : 5126, "count" : 63, "type" : "VEC3", "max" : [53.600860595703125, 249.66773986816406, 53.34947967529297], "min" : [-53.600860595703125, 249.66773986816406, -53.68564987182617], "name" : "POSITION"}], "asset" : {"generator" : "Aspose.3D 22.7", "version" : "2.0"}, "buffers" : [{"uri" : "data:application/octet-stream;base64,", "byteLength" : 361332}], "bufferViews" : [{"buffer" : 0, "byteOffset" : 0, "byteLength" : 32968, "target" : 34963}, {"buffer" : 0, "byteOffset" : 32972, "byteLength" : 48000, "byteStride" : 20, "target" : 34962}, {"buffer" : 0, "byteOffset" : 80976, "byteLength" : 278400, "byteStride" : 20, "target" : 34962}, {"buffer" : 0, "byteOffset" : 359380, "byteLength" : 972, "byteStride" : 12, "target" : 34962}, {"buffer" : 0, "byteOffset" : 360356, "byteLength" : 972, "byteStride" : 12, "target" : 34962}], "meshes" : [{"primitives" : [{"attributes" : {"POSITION" : 1, "TEXCOORD_0" : 2}, "indices" : 0, "mode" : 4}], "name" : ""}, {"primitives" : [{"attributes" : {"POSITION" : 4, "TEXCOORD_0" : 5}, "indices" : 3, "mode" : 4}], "name" : ""}, {"primitives" : [{"attributes" : {"POSITION" : 7}, "indices" : 6, "mode" : 4}], "name" : ""}, {"primitives" : [{"attributes" : {"POSITION" : 9}, "indices" : 8, "mode" : 4}], "name" : ""}], "nodes" : [{"mesh" : 0, "name" : "Plane"}, {"mesh" : 1, "name" : "Loft_NURBS"}, {"mesh" : 2, "name" : "Loft_NURBS Cap_1"}, {"mesh" : 3, "name" : "Loft_NURBS Cap_2"}], "scene" : 0, "scenes" : [{"nodes" : [0, 1, 2, 3]}]}