{
  "accessors": [
    {
      "bufferView": 0,
      "componentType": 5126,
      "count": 2488,
      "max": [
        132.83245849609375,
        128.56201171875,
        333.4347229003906
      ],
      "min": [
        -123.88265228271484,
        -127.76017761230469,
        0.8608490228652954
      ],
      "type": "VEC3"
    },
    {
      "bufferView": 0,
      "byteOffset": 12,
      "componentType": 5126,
      "count": 2488,
      "type": "VEC3"
    },
    {
      "bufferView": 1,
      "componentType": 5125,
      "count": 14082,
      "type": "SCALAR"
    }
  ],
  "asset": {
    "version": "2.0"
  },
  "bufferViews": [
    {
      "buffer": 0,
      "byteLength": 79616,
      "byteStride": 32,
      "target": 34962
    },
    {
      "buffer": 0,
      "byteLength": 56328,
      "byteOffset": 79616,
      "target": 34963
    }
  ],
  "buffers": [
    {
      "byteLength": 135944,
      "uri": "PotteryTest.bin"
    }
  ],
  "materials": [
    {
      "name": "Mat_1",
      "pbrMetallicRoughness": {
        "baseColorFactor": [
          0.5,
          0.5,
          0.5,
          1.0
        ],
        "metallicFactor": 0.0,
        "roughnessFactor": 0.0
      }
    }
  ],
  "meshes": [
    {
      "name": "Loft_NURBS",
      "primitives": [
        {
          "attributes": {
            "NORMAL": 1,
            "POSITION": 0
          },
          "indices": 2,
          "material": 0,
          "mode": 4
        }
      ]
    }
  ],
  "nodes": [
    {
      "matrix": [
        0.0254,
        0.0,
        0.0,
        0.0,
        0.0,
        0.0254,
        0.0,
        0.0,
        0.0,
        0.0,
        0.0254,
        0.0,
        0.0,
        0.0,
        0.0,
        1.0
      ],
      "mesh": 0,
      "name": "Loft_NURBS"
    },
    {
      "children": [
        0
      ],
      "matrix": [
        0.1317215859889984,
        0.0,
        0.0,
        0.0,
        0.0,
        0.0,
        -0.1317215859889984,
        0.0,
        0.0,
        0.1317215859889984,
        0.0,
        0.0,
        0.0,
        0.0,
        0.0,
        1.0
      ]
    }
  ],
  "scenes": [
    {
      "nodes": [
        1
      ]
    }
  ]
}
