{"accessors" : [{"bufferView" : 0, "byteOffset" : 0, "componentType" : 5123, "count" : 14082, "type" : "SCALAR", "max" : [11522], "min" : [0]}, {"bufferView" : 1, "byteOffset" : 0, "componentType" : 5126, "count" : 11523, "type" : "VEC3", "max" : [17.49690055847168, 43.92060089111328, 16.828800201416016], "min" : [-16.31800079345703, 0.11339999735355377, -16.93440055847168], "name" : "POSITION"}, {"bufferView" : 1, "byteOffset" : 12, "componentType" : 5126, "count" : 11523, "type" : "VEC2", "max" : [1, -0], "min" : [0, -1], "name" : "TEXCOORD_0"}, {"bufferView" : 1, "byteOffset" : 20, "componentType" : 5126, "count" : 11523, "type" : "VEC3", "max" : [0, 0, -0], "min" : [0, -1.0000044107437134, -1.0000044107437134], "name" : "NORMAL"}], "asset" : {"generator" : "Aspose.3D 22.7", "version" : "2.0"}, "buffers" : [{"uri" : "data:application/octet-stream;base64,", "byteLength" : 478796}], "bufferViews" : [{"buffer" : 0, "byteOffset" : 0, "byteLength" : 28164, "target" : 34963}, {"buffer" : 0, "byteOffset" : 28168, "byteLength" : 450624, "byteStride" : 32, "target" : 34962}], "meshes" : [{"primitives" : [{"attributes" : {"POSITION" : 1, "TEXCOORD_0" : 2, "NORMAL" : 3}, "indices" : 0, "mode" : 4}], "name" : ""}], "nodes" : [{"mesh" : 0, "name" : "Loft_NURBS"}], "scene" : 0, "scenes" : [{"nodes" : [0]}]}